<svg width="119" height="68" viewBox="0 0 119 68" fill="none" xmlns="http://www.w3.org/2000/svg">
<path d="M60.9766 9.41418L63.5157 22.7058" stroke="white" stroke-miterlimit="10"/>
<path d="M60.7511 9.48457C61.4864 13.3594 62.2315 17.2341 62.9668 21.1089C63.0746 21.6608 63.1824 22.2126 63.2805 22.7645C63.3491 23.1168 63.8001 22.9641 63.7413 22.6119C63.006 18.7371 62.2609 14.8623 61.5256 10.9875C61.4177 10.4357 61.3099 9.88379 61.2119 9.33193C61.1432 8.97967 60.6825 9.13232 60.7511 9.48457Z" fill="white" stroke="white" stroke-miterlimit="10"/>
<path d="M63.5746 24.8898C64.1923 27.6843 64.7609 30.5023 65.2707 33.3321C65.3393 33.6961 65.3785 34.1657 65.6236 34.4358C65.9079 34.7528 66.3687 34.6706 66.7217 34.6706C68.0158 34.6824 69.3001 34.6119 70.5942 34.6119C70.751 34.6119 70.8687 34.4358 70.8197 34.2479C70.8099 34.1892 70.8001 34.1423 70.7804 34.0835C70.6824 33.7313 70.2706 33.8722 70.3197 34.2362C70.3295 34.3184 70.3491 34.3888 70.3883 34.471C70.5157 34.7646 70.8883 34.5532 70.8197 34.2479C70.0157 30.6432 69.1726 27.0502 68.3295 23.4573C67.4766 19.7821 66.6824 16.0834 65.8687 12.3848C65.4668 10.5648 65.055 8.75658 64.6432 6.93661C64.4276 6.00901 64.2119 5.08141 63.9962 4.15382C63.8295 3.43757 63.7315 2.59216 63.3884 1.94637C62.8295 0.901349 61.7217 0.795673 61.1727 1.8994C60.8786 2.50997 60.7119 3.23796 60.5158 3.88375C60.2707 4.69394 60.0158 5.50412 59.7707 6.3143C57.5649 13.5003 55.5061 20.7567 53.261 27.9309C52.7414 29.5982 52.2806 31.3007 51.8002 32.9916C51.6924 33.3556 51.6336 33.9074 51.2904 34.0248C50.9669 34.1423 50.5649 34.0718 50.2316 34.0718C49.4375 34.0718 48.6532 34.0835 47.8591 34.0835C47.8101 34.0835 47.4963 34.107 47.4767 34.0835C47.4571 34.0483 47.5944 33.7196 47.614 33.6726C47.7611 33.2264 47.9081 32.792 48.0552 32.3458C48.3101 31.5473 48.565 30.7489 48.8199 29.9504C49.3689 28.2479 49.9179 26.5571 50.4669 24.8545C51.614 21.3203 52.761 17.786 53.9081 14.2635C54.4767 12.5139 55.0453 10.7644 55.6237 9.0149C55.9178 8.11079 56.2218 7.21841 56.5159 6.3143C56.7708 5.53934 57.0453 4.63523 57.5355 4.02466C58.2217 3.19099 58.8982 3.77808 59.3002 4.61174C59.457 4.92877 59.8688 4.63523 59.7119 4.32994C59.4472 3.78982 59.0747 3.26144 58.5551 3.07357C58.0649 2.89745 57.6041 3.16751 57.2512 3.57847C56.8002 4.09511 56.5159 4.83484 56.2806 5.51586C55.9571 6.41997 55.6727 7.34757 55.3688 8.26343C54.1728 11.8916 52.9963 15.5316 51.8198 19.1598C50.6532 22.741 49.4865 26.3222 48.3395 29.9035C48.0748 30.7254 47.8199 31.5591 47.5454 32.381C47.4081 32.792 47.2709 33.1912 47.1434 33.6021C47.065 33.8252 46.9375 34.1188 47.0356 34.3653C47.114 34.5532 47.2611 34.6119 47.4179 34.6354C47.8003 34.6941 48.212 34.6472 48.6042 34.6472C49.3983 34.6354 50.1924 34.6706 50.9865 34.6354C51.4277 34.6237 51.8394 34.4945 52.0257 33.9661C52.3002 33.2264 52.4767 32.3927 52.7022 31.6295C53.2316 29.8095 53.7708 28.0013 54.31 26.1813C55.4178 22.4122 56.5453 18.6549 57.6727 14.8975C58.7708 11.2693 59.8688 7.64112 60.9864 4.02466C61.0943 3.6724 61.2119 3.33189 61.3099 2.99138C61.4178 2.6039 61.555 2.08727 61.8295 1.81721C62.1727 1.46495 62.6335 1.71153 62.8982 2.06378C63.1433 2.39255 63.2315 2.827 63.3197 3.23796C63.7217 5.12838 64.1923 7.00706 64.6236 8.89748C65.4864 12.7136 66.3001 16.5531 67.1628 20.3809C68.006 24.1148 68.9079 27.8252 69.751 31.5591C69.9667 32.4984 70.1824 33.4378 70.3883 34.3888C70.5353 34.3184 70.6726 34.2479 70.8197 34.1657C70.8099 34.1423 70.8099 34.0953 70.8001 34.0718C70.6432 34.1188 70.4961 34.1775 70.3393 34.2244C70.3589 34.2832 70.3687 34.3301 70.3785 34.3888C70.4569 34.2714 70.5353 34.154 70.604 34.0248C69.5059 34.0248 68.3981 34.0835 67.3001 34.0835C67.0158 34.0835 66.7315 34.0953 66.4472 34.0835C66.1432 34.0718 65.9472 34.0953 65.8393 33.7196C65.6825 33.2264 65.6432 32.6511 65.5452 32.1344C65.0844 29.6452 64.5746 27.1794 64.0354 24.7254C63.9472 24.3966 63.4962 24.5375 63.5746 24.8898Z" fill="white" stroke="white" stroke-miterlimit="10"/>
<path d="M55.5943 23.9024C58.5943 23.9024 61.5943 23.9024 64.5844 23.9024C65.0158 23.9024 65.4374 23.9024 65.8687 23.9024C66.1726 23.9024 66.1726 23.3398 65.8687 23.3398C62.8688 23.3398 59.8688 23.3398 56.8786 23.3398C56.4472 23.3398 56.0257 23.3398 55.5943 23.3398C55.2904 23.3398 55.2806 23.9024 55.5943 23.9024Z" fill="white" stroke="white" stroke-miterlimit="10"/>
<path d="M50.5257 30.7841C51.3002 28.3535 52.0747 25.9347 52.8492 23.5042C54.0747 19.6529 55.31 15.8016 56.5355 11.9503C56.8198 11.058 57.1041 10.1656 57.3884 9.27321C57.4962 8.9327 57.0355 8.78006 56.9276 9.12057C56.1531 11.5511 55.3786 13.9699 54.6041 16.4005C53.3786 20.2517 52.1434 24.103 50.9179 27.9543C50.6336 28.8467 50.3493 29.7391 50.0649 30.6315C49.9571 30.972 50.4179 31.1129 50.5257 30.7841Z" fill="white" stroke="white" stroke-miterlimit="10"/>
<path d="M8.78898 53.3452H4.20998L3.33598 55.8939H0.97998L5.38798 44.0609H7.64898L12.076 55.8939H9.66297L8.78898 53.3452ZM8.06698 51.2744L6.48998 46.746L4.91298 51.2744H8.06698Z" fill="white"/>
<path d="M27.504 44.038L24.274 55.8709H21.823L19.638 47.8609L17.396 55.8709H14.945L11.696 44.038H14.071L16.294 52.3666L18.631 44.038H20.759L23.02 52.4348L25.319 44.038H27.504Z" fill="white"/>
<path d="M34.971 53.3452H30.373L29.499 55.8939H27.162L31.57 44.0609H33.831L38.258 55.8939H35.864L34.971 53.3452ZM34.249 51.2744L32.672 46.746L31.095 51.2744H34.249Z" fill="white"/>
<path d="M42.875 51.2289L41.545 52.8901V55.8938H39.265V44.0609H41.545V49.5905L45.934 44.0609H48.48L44.376 49.3402L48.708 55.9166H46.029L42.875 51.2289Z" fill="white"/>
<path d="M57.391 53.6866V55.8939H49.734V44.0609H57.201V46.2682H51.995V48.8396H56.593V50.9786H51.995V53.7093H57.391V53.6866Z" fill="white"/>
<path d="M62.426 54.7095L63.205 52.6387C64.041 53.3669 65.276 53.8675 66.473 53.8675C67.822 53.8675 68.373 53.3214 68.373 52.5932C68.373 50.3859 62.616 51.9105 62.616 47.4959C62.616 45.4934 63.965 43.8094 66.777 43.8094C68.012 43.8094 69.285 44.1735 70.216 44.8562L69.513 46.927C68.601 46.2898 67.651 45.994 66.777 45.994C65.428 45.994 64.896 46.6084 64.896 47.3366C64.896 49.5211 70.653 48.0193 70.653 52.3656C70.653 54.3454 69.285 56.0293 66.454 56.0293C64.896 56.0748 63.3 55.5287 62.426 54.7095Z" fill="white"/>
<path d="M74.13 46.268H70.957V44.038H79.583V46.268H76.41V55.8709H74.13V46.268Z" fill="white"/>
<path d="M80.552 50.6826V44.0607H82.832V50.5689C82.832 52.8217 83.649 53.7547 85.036 53.7547C86.442 53.7547 87.24 52.8217 87.24 50.5689V44.038H89.52V50.6599C89.52 54.1415 87.848 56.0758 85.036 56.0758C82.224 56.0758 80.552 54.1643 80.552 50.6826Z" fill="white"/>
<path d="M91.781 44.038H96.265C99.495 44.038 101.718 46.3818 101.718 49.9545C101.718 53.5271 99.495 55.8709 96.265 55.8709H91.781V44.038ZM96.151 53.6409C98.108 53.6409 99.4 52.23 99.4 49.9772C99.4 47.7244 98.108 46.3135 96.151 46.3135H94.061V53.6636H96.151V53.6409Z" fill="white"/>
<path d="M103.447 44.038H105.727V55.8709H103.447V44.038Z" fill="white"/>
<path d="M107.456 49.9547C107.456 46.4275 109.736 43.8334 112.871 43.8334C115.987 43.8334 118.286 46.4275 118.286 49.9547C118.286 53.4818 115.987 56.076 112.871 56.076C109.736 56.076 107.456 53.4818 107.456 49.9547ZM115.968 49.9547C115.968 47.7019 114.638 46.1545 112.871 46.1545C111.104 46.1545 109.774 47.7019 109.774 49.9547C109.774 52.2075 111.104 53.7549 112.871 53.7549C114.638 53.7549 115.968 52.2075 115.968 49.9547Z" fill="white"/>
<path d="M17.434 67.3674H17.4683L17.4807 67.3354L18.0763 65.7972H20.6495L21.2828 67.3364L21.2955 67.3674H21.329H21.462H21.5351L21.5086 67.2993L19.4946 62.111L19.4823 62.0791H19.448H19.315H19.2808L19.2684 62.111L17.2544 67.2993L17.228 67.3674H17.301H17.434ZM18.1531 65.5607L19.353 62.472L20.553 65.5607H18.1531Z" fill="white" stroke="white" stroke-width="0.1"/>
<path d="M29.2621 62.1428L29.2803 62.0791H29.2141H29.0621H29.0243L29.014 62.1155L27.6554 66.9087L26.2601 62.1151L26.2496 62.0791H26.2121H26.0791H26.0416L26.0311 62.1151L24.6357 66.8867L23.2772 62.1154L23.2668 62.0791H23.2291H23.0961H23.0298L23.048 62.1428L24.53 67.3311L24.5404 67.3674H24.5781H24.7111H24.7486L24.7591 67.3313L26.1551 62.5136L27.551 67.3313L27.5615 67.3674H27.5991H27.7321H27.7698L27.7801 67.3311L29.2621 62.1428Z" fill="white" stroke="white" stroke-width="0.1"/>
<path d="M31.019 67.3674H31.0532L31.0656 67.3354L31.6612 65.7972H34.2345L34.8677 67.3364L34.8805 67.3674H34.914H35.047H35.12L35.0936 67.2993L33.0796 62.111L33.0672 62.0791H33.033H32.9H32.8658L32.8534 62.111L30.8394 67.2993L30.8129 67.3674H30.886H31.019ZM31.7381 65.5607L32.938 62.472L34.1379 65.5607H31.7381Z" fill="white" stroke="white" stroke-width="0.1"/>
<path d="M40.4422 62.0975L37.605 65.5838V62.1291V62.0791H37.555H37.422H37.372V62.1291V67.3174V67.3674H37.422H37.555H37.605V67.3174V65.9472L38.636 64.6907L40.5929 67.3244L40.6079 67.3446H40.633H40.804H40.9032L40.8442 67.2649L38.7962 64.4971L40.6908 62.1606L40.7569 62.0791H40.652H40.481H40.4572L40.4422 62.0975Z" fill="white" stroke="white" stroke-width="0.1"/>
<path d="M46.193 67.1808V67.1308H46.143H43.438V64.796H45.782H45.832V64.746V64.6095V64.5595H45.782H43.438V62.3156H46.048H46.098V62.2656V62.1291V62.0791H46.048H43.255H43.205V62.1291V67.3174V67.3674H43.255H46.143H46.193V67.3174V67.1808Z" fill="white" stroke="white" stroke-width="0.1"/>
<path d="M53.0781 65.2737L51.4505 62.1062L51.4366 62.0791H51.4061H51.2731H51.1909L51.2287 62.1521L52.9901 65.5546V67.2946V67.3446H53.0401H53.1541H53.2041V67.2946V65.5544L54.9277 62.1517L54.9644 62.0791H54.8831H54.7501H54.7195L54.7056 62.1062L53.0781 65.2737Z" fill="white" stroke="white" stroke-width="0.1"/>
<path d="M58.93 62.0551C57.6221 62.0551 56.657 63.2004 56.657 64.722C56.657 66.2436 57.6221 67.3889 58.93 67.3889C60.238 67.3889 61.203 66.2436 61.203 64.722C61.203 63.2004 60.238 62.0551 58.93 62.0551ZM58.93 62.2916C60.0916 62.2916 60.97 63.3303 60.97 64.722C60.97 66.1137 60.0916 67.1524 58.93 67.1524C57.7872 67.1524 56.89 66.1134 56.89 64.722C56.89 63.3303 57.7684 62.2916 58.93 62.2916Z" fill="white" stroke="white" stroke-width="0.1"/>
<path d="M63.832 62.1018H63.782V62.1518V65.1556C63.782 65.8899 63.94 66.4433 64.2372 66.8139C64.5358 67.1863 64.9694 67.3674 65.504 67.3674C66.0392 67.3674 66.4728 67.1803 66.7712 66.8022C67.0681 66.426 67.226 65.8672 67.226 65.1328V62.1291V62.0791H67.176H67.043H66.993V62.1291V65.1328C66.993 65.8096 66.8516 66.3091 66.5973 66.6383C66.3447 66.9654 65.9757 67.1308 65.504 67.1308C65.0319 67.1308 64.663 66.9708 64.4106 66.6467C64.1565 66.3204 64.015 65.8212 64.015 65.1328V62.1518V62.1018H63.965H63.832Z" fill="white" stroke="white" stroke-width="0.1"/>
<path d="M73.3653 67.3433L73.3799 67.3674H73.4081H73.5411H73.6294L73.5839 67.2916L72.4952 65.4794C72.81 65.3696 73.0646 65.1767 73.243 64.9103C73.4324 64.6275 73.5341 64.2646 73.5341 63.8358C73.5341 63.2913 73.3743 62.8507 73.0731 62.5462C72.7719 62.2416 72.3351 62.0791 71.7931 62.0791H70.3301H70.2801V62.1291V67.3174V67.3674H70.3301H70.4441H70.4941V67.3174V65.5924H71.7931H71.7978C71.9696 65.5924 72.1337 65.5924 72.2829 65.5551L73.3653 67.3433ZM71.8121 65.3332H70.5131V62.3156H71.8121C72.3063 62.3156 72.6814 62.4551 72.9331 62.7103C73.1849 62.9657 73.3201 63.344 73.3201 63.8358C73.3201 64.3275 73.1849 64.7058 72.9331 64.9612C72.69 65.2078 72.3317 65.3463 71.8621 65.3554V65.3332H71.8121Z" fill="white" stroke="white" stroke-width="0.1"/>
<path d="M83.699 62.1291V62.0791H83.649H83.535H83.5034L83.4899 62.1075L81.502 66.2684L79.5141 62.1075L79.5005 62.0791H79.469H79.355H79.305V62.1291V67.3174V67.3674H79.355H79.488H79.538V67.3174V62.6902L81.4189 66.6108L81.4325 66.6392H81.464H81.54H81.5715L81.5851 66.6107L83.466 62.6686V67.3174V67.3674H83.516H83.649H83.699V67.3174V62.1291Z" fill="white" stroke="white" stroke-width="0.1"/>
<path d="M86.8411 62.0791H86.7911V62.1291V67.3174V67.3674H86.8411H86.9741H87.0241V67.3174V62.1291V62.0791H86.9741H86.8411Z" fill="white" stroke="white" stroke-width="0.1"/>
<path d="M93.598 62.1291V62.0791H93.548H93.434H93.384V62.1291V66.8747L90.303 62.102L90.2882 62.0791H90.261H90.147H90.097V62.1291V67.3174V67.3674H90.147H90.28H90.33V67.3174V62.5727L93.3919 67.3444L93.4067 67.3674H93.434H93.548H93.598V67.3174V62.1291Z" fill="white" stroke="white" stroke-width="0.1"/>
<path d="M96.74 62.0791H96.69V62.1291V67.3174V67.3674H96.74H98.374C99.0723 67.3674 99.6561 67.0882 100.065 66.6162C100.473 66.1449 100.704 65.4841 100.704 64.7232C100.704 63.9624 100.473 63.3016 100.065 62.8302C99.6561 62.3583 99.0723 62.0791 98.374 62.0791H96.74ZM100.49 64.7232C100.49 65.4191 100.284 66.0212 99.9178 66.4486C99.5523 66.8752 99.0248 67.1308 98.374 67.1308H96.923V62.3156H98.374C99.0152 62.3156 99.5428 62.5712 99.9108 62.998C100.279 63.4255 100.49 64.0277 100.49 64.7232Z" fill="white" stroke="white" stroke-width="0.1"/>
</svg>
