<svg width="30" height="28" viewBox="0 0 30 28" fill="none" xmlns="http://www.w3.org/2000/svg">
<path d="M29.7767 0.291757C29.5172 0.0030221 29.1076 -0.0744009 28.7683 0.0728774L0.526387 12.3558C0.213499 12.492 0.00783615 12.7964 0.000219021 13.1364C-0.0073981 13.4758 0.184202 13.789 0.491231 13.9392L7.23473 17.234L8.91519 27.2501C8.96968 27.6302 9.27026 27.9358 9.66166 27.9911C9.94291 28.0313 10.2224 27.9329 10.4158 27.735L15.7395 22.4458L23.3367 27.8375C23.5805 28.0098 23.8946 28.0476 24.1711 27.9388C24.4483 27.8299 24.651 27.5883 24.7096 27.2978L29.983 1.04387C30.0351 0.783656 29.9677 0.504816 29.7767 0.291757ZM7.93082 15.6279L2.96504 13.2016L22.5832 4.66936L7.93082 15.6279ZM10.6812 18.2236L9.86381 22.284L8.98198 17.0273L19.7614 8.96546L10.9208 17.7783C10.7966 17.9017 10.714 18.0624 10.6812 18.2236ZM11.2161 24.4699L12.1384 19.8903L14.2894 21.4166L11.2161 24.4699ZM23.2518 25.6306L12.8966 18.2824L27.6896 3.53654L23.2518 25.6306Z" fill="white"/>
</svg>
